<?xml version="1.0" standalone="no"?>
<!DOCTYPE svg PUBLIC "-//W3C//DTD SVG 20010904//EN"
 "http://www.w3.org/TR/2001/REC-SVG-20010904/DTD/svg10.dtd">
<svg version="1.0" xmlns="http://www.w3.org/2000/svg"
 width="255.000000pt" height="204.000000pt" viewBox="0 0 255.000000 204.000000"
 preserveAspectRatio="xMidYMid meet">

<g transform="translate(0.000000,204.000000) scale(0.100000,-0.100000)"
fill="#000000" stroke="none">
<path d="M1945 1826 c77 -100 192 -205 180 -166 -12 44 -56 124 -84 153 -27
30 -87 69 -133 86 -24 9 -19 0 37 -73z"/>
<path d="M544 1860 c-29 -16 -68 -48 -87 -71 -36 -41 -75 -134 -63 -147 9 -8
100 82 143 143 20 28 48 62 62 78 33 36 11 35 -55 -3z"/>
<path d="M2130 1763 c22 -43 66 -200 58 -208 -3 -3 -47 26 -99 64 -51 38 -95
68 -97 66 -11 -10 53 -98 96 -132 26 -21 70 -61 99 -89 l53 -51 0 111 c0 86
-5 120 -19 151 -21 46 -64 101 -92 116 -18 9 -18 9 1 -28z"/>
<path d="M332 1726 c-52 -56 -67 -120 -58 -237 l7 -84 103 100 c98 95 124 126
139 169 7 17 6 17 -11 5 -69 -51 -152 -123 -166 -144 -9 -14 -21 -23 -25 -20
-10 5 27 159 52 218 21 49 9 47 -41 -7z"/>
<path d="M1039 1665 l-31 -55 -132 0 -133 0 -6 -97 c-10 -150 14 -400 53 -563
42 -175 141 -360 235 -437 65 -54 199 -113 256 -113 92 0 256 95 324 187 139
190 202 431 212 811 l6 212 -131 0 -131 0 -36 55 -35 55 -210 0 -210 0 -31
-55z m468 -60 l22 -40 118 -5 118 -5 -1 -195 c-2 -283 -33 -439 -120 -613 -76
-152 -159 -227 -296 -266 -56 -16 -69 -17 -115 -5 -258 66 -407 327 -442 773
-12 154 -5 297 15 305 8 3 59 4 114 3 55 -2 104 -1 109 2 4 4 16 22 26 41 10
19 23 38 29 42 6 5 99 7 206 5 l194 -2 23 -40z"/>
<path d="M1159 1333 c-11 -12 -15 -64 -17 -210 -4 -255 -11 -243 143 -243
l115 0 -2 45 c-1 45 -17 75 -19 38 -1 -10 -2 -22 -4 -28 -1 -5 -3 -16 -3 -22
-2 -10 -28 -13 -96 -13 -76 0 -95 3 -100 16 -8 20 -8 378 0 398 5 13 23 16 94
16 94 0 104 -5 104 -49 1 -13 7 -26 14 -28 8 -3 12 10 12 46 l0 51 -114 0
c-93 0 -116 -3 -127 -17z"/>
<path d="M2282 1463 c-1 -86 -5 -160 -9 -166 -3 -5 -11 3 -18 19 -15 36 -83
113 -136 155 l-40 31 20 -51 c11 -29 46 -89 79 -134 33 -45 71 -104 85 -132
l25 -50 21 75 c12 41 26 85 31 98 15 34 12 150 -4 203 -13 42 -43 109 -49 109
-1 0 -3 -71 -5 -157z"/>
<path d="M197 1553 c-34 -74 -30 -218 10 -336 l30 -87 28 52 c15 29 48 81 72
116 46 65 99 170 90 178 -12 12 -134 -124 -158 -175 l-26 -55 -9 125 c-4 68
-8 148 -7 177 1 28 -1 52 -3 52 -3 0 -15 -21 -27 -47z"/>
<path d="M2385 1285 c-9 -48 -93 -276 -106 -290 -5 -5 -9 1 -9 17 0 14 -7 45
-15 68 -20 58 -99 194 -103 180 -6 -17 15 -118 49 -234 16 -56 29 -120 29
-143 0 -24 3 -43 8 -43 16 1 125 165 142 214 22 64 32 177 21 231 l-8 40 -8
-40z"/>
<path d="M119 1255 c-10 -144 19 -241 103 -353 l63 -83 7 58 c4 31 19 96 32
143 40 138 59 267 37 244 -24 -23 -101 -214 -104 -257 -6 -64 -13 -68 -27 -15
-7 23 -29 88 -50 143 -21 55 -43 114 -48 130 l-10 30 -3 -40z"/>
<path d="M2142 980 c-7 -20 -19 -103 -27 -185 -8 -83 -19 -165 -26 -183 -6
-18 -9 -35 -6 -38 10 -10 140 81 202 143 70 68 112 146 121 220 5 47 5 48 -9
18 -8 -16 -45 -64 -83 -105 -38 -41 -87 -97 -108 -123 -21 -26 -40 -47 -41
-45 -2 2 3 30 10 64 11 52 10 76 -4 165 -17 102 -17 103 -29 69z"/>
<path d="M367 990 c-28 -76 -33 -259 -7 -312 6 -13 -11 1 -37 31 -26 30 -76
85 -109 121 -34 37 -69 82 -79 99 -9 18 -18 31 -20 29 -2 -1 1 -26 5 -54 17
-104 79 -187 209 -278 42 -29 87 -59 100 -66 22 -11 23 -11 16 6 -15 39 -25
92 -36 204 -12 130 -34 242 -42 220z"/>
<path d="M2042 753 c-33 -48 -69 -126 -92 -200 -12 -40 -37 -97 -55 -127 -18
-31 -32 -56 -30 -56 39 0 208 46 246 66 61 34 159 126 183 172 24 46 13 51
-25 14 -18 -17 -64 -48 -103 -68 -39 -21 -100 -55 -135 -76 -35 -22 -65 -37
-67 -35 -2 2 12 32 30 68 24 44 41 97 54 167 10 56 18 102 16 102 -1 0 -11
-12 -22 -27z"/>
<path d="M466 715 c7 -33 14 -70 14 -82 0 -32 37 -125 65 -167 13 -20 21 -36
17 -36 -4 0 -34 16 -66 36 -33 19 -91 51 -129 70 -38 19 -88 53 -113 76 -49
45 -53 44 -25 -11 29 -55 126 -148 186 -176 42 -20 234 -68 242 -61 2 1 -13
31 -32 67 -18 35 -46 98 -61 139 -32 90 -54 135 -88 175 l-24 30 14 -60z"/>
<path d="M649 481 c38 -74 90 -134 132 -151 56 -24 15 -31 -107 -19 -103 10
-185 27 -259 53 -40 15 61 -67 115 -93 48 -23 67 -26 150 -25 80 1 250 30 266
47 2 1 -23 15 -55 31 -32 15 -89 56 -127 92 -38 36 -86 79 -107 96 l-39 31 31
-62z"/>
<path d="M1778 441 c-65 -60 -125 -106 -153 -117 -25 -11 -45 -22 -45 -25 0
-14 182 -44 270 -44 84 0 101 3 150 28 46 23 130 89 130 101 0 2 -18 -5 -39
-16 -22 -11 -68 -24 -103 -29 -167 -25 -217 -30 -244 -27 l-29 3 38 24 c21 13
47 33 57 44 24 25 94 157 83 157 -4 0 -56 -45 -115 -99z"/>
<path d="M1040 275 c-30 -7 -89 -28 -130 -45 -41 -17 -88 -36 -105 -41 -35
-11 -140 -13 -180 -3 -44 11 -22 -10 42 -41 46 -21 73 -27 128 -27 79 -1 139
22 241 88 72 47 109 64 140 64 44 0 33 -18 -37 -60 -38 -24 -93 -63 -120 -88
-46 -41 -49 -46 -35 -61 15 -14 21 -11 69 35 57 55 112 98 170 133 l37 23 43
-21 c24 -11 83 -57 131 -100 84 -76 108 -87 120 -56 7 19 -114 113 -202 159
-39 20 -34 36 12 36 21 0 55 -14 95 -40 144 -93 244 -124 329 -101 46 12 130
50 137 61 2 4 -21 3 -51 -1 -76 -10 -159 3 -242 40 -113 50 -185 65 -272 56
-86 -8 -89 -8 -190 -1 -49 4 -94 1 -130 -9z"/>
</g>
</svg>
